<?xml version="1.0" standalone="no"?>
<svg xmlns="http://www.w3.org/2000/svg" viewBox="0 0 211.1 29" width="211.1" height="29"><path fill="#12a5bf" fill-rule="nonzero" d="M6.38 17.88Q3.34 17.88 0.67 16.73L0.67 16.73Q0.38 16.61 0.19 16.33Q0 16.06 0 15.74L0 15.74Q0 15.34 0.28 15.04Q0.55 14.74 0.98 14.74L0.98 14.74Q1.22 14.74 1.44 14.83L1.44 14.83Q3.65 15.82 6.17 15.82L6.17 15.82Q10.37 15.82 10.37 13.06L10.37 13.06Q10.37 12.34 9.83 11.86Q9.29 11.38 8.50 11.10Q7.70 10.82 6.24 10.44L6.24 10.44Q4.30 9.94 3.10 9.47Q1.90 9 1.03 8.06Q0.17 7.13 0.17 5.57L0.17 5.57Q0.17 4.20 0.89 3.08Q1.61 1.97 3.01 1.31Q4.42 0.65 6.38 0.65L6.38 0.65Q9.02 0.65 11.16 1.44L11.16 1.44Q11.83 1.68 11.83 2.40L11.83 2.40Q11.83 2.78 11.57 3.10Q11.30 3.41 10.87 3.41L10.87 3.41Q10.73 3.41 10.49 3.31L10.49 3.31Q8.62 2.66 6.62 2.66L6.62 2.66Q4.73 2.66 3.54 3.38Q2.35 4.10 2.35 5.40L2.35 5.40Q2.35 6.26 2.92 6.80Q3.48 7.34 4.33 7.64Q5.18 7.94 6.65 8.28L6.65 8.28Q8.54 8.74 9.71 9.19Q10.87 9.65 11.70 10.61Q12.53 11.57 12.53 13.20L12.53 13.20Q12.53 14.54 11.76 15.61Q10.99 16.68 9.60 17.28Q8.21 17.88 6.38 17.88L6.38 17.88ZM16.27 2.90Q15.77 2.90 15.41 2.54Q15.05 2.18 15.05 1.68L15.05 1.68L15.05 1.58Q15.05 1.08 15.41 0.72Q15.77 0.36 16.27 0.36L16.27 0.36L16.42 0.36Q16.92 0.36 17.28 0.72Q17.64 1.08 17.64 1.58L17.64 1.58L17.64 1.68Q17.64 2.18 17.28 2.54Q16.92 2.90 16.42 2.90L16.42 2.90L16.27 2.90ZM16.32 17.76Q15.86 17.76 15.55 17.45Q15.24 17.14 15.24 16.68L15.24 16.68L15.24 6.38Q15.24 5.93 15.55 5.60Q15.86 5.28 16.32 5.28L16.32 5.28Q16.80 5.28 17.11 5.59Q17.42 5.90 17.42 6.38L17.42 6.38L17.42 16.68Q17.42 17.14 17.10 17.45Q16.78 17.76 16.32 17.76L16.32 17.76ZM22.30 17.76Q21.84 17.76 21.53 17.45Q21.22 17.14 21.22 16.68L21.22 16.68L21.22 6.38Q21.22 5.93 21.53 5.60Q21.84 5.28 22.30 5.28L22.30 5.28Q22.75 5.28 23.08 5.60Q23.40 5.93 23.40 6.38L23.40 6.38L23.40 7.37Q24.07 6.41 25.02 5.78Q25.97 5.16 27.48 5.16L27.48 5.16Q28.82 5.16 29.78 5.88Q30.74 6.60 31.15 7.63L31.15 7.63Q32.64 5.16 35.57 5.16L35.57 5.16Q36.91 5.16 37.81 5.83Q38.71 6.50 39.14 7.56Q39.58 8.62 39.58 9.77L39.58 9.77L39.58 16.68Q39.58 17.14 39.25 17.45Q38.93 17.76 38.47 17.76L38.47 17.76Q38.02 17.76 37.70 17.45Q37.39 17.14 37.39 16.68L37.39 16.68L37.39 10.20Q37.39 8.64 36.84 7.91Q36.29 7.18 34.94 7.18L34.94 7.18Q33.72 7.18 32.92 7.81Q32.11 8.45 31.49 9.48L31.49 9.48L31.49 16.68Q31.49 17.14 31.16 17.45Q30.84 17.76 30.38 17.76L30.38 17.76Q29.93 17.76 29.62 17.45Q29.30 17.14 29.30 16.68L29.30 16.68L29.30 10.20Q29.30 8.64 28.75 7.91Q28.20 7.18 26.86 7.18L26.86 7.18Q25.63 7.18 24.83 7.81Q24.02 8.45 23.40 9.48L23.40 9.48L23.40 16.68Q23.40 17.14 23.08 17.45Q22.75 17.76 22.30 17.76L22.30 17.76ZM44.33 23.28Q43.87 23.28 43.56 22.96Q43.25 22.63 43.25 22.18L43.25 22.18L43.25 6.36Q43.25 5.90 43.56 5.59Q43.87 5.28 44.33 5.28L44.33 5.28Q44.78 5.28 45.11 5.59Q45.43 5.90 45.43 6.36L45.43 6.36L45.43 6.98Q47.18 5.16 49.54 5.16L49.54 5.16Q51.02 5.16 52.36 5.92Q53.69 6.67 54.52 8.12Q55.34 9.58 55.34 11.52L55.34 11.52Q55.34 13.46 54.52 14.92Q53.69 16.37 52.36 17.12Q51.02 17.88 49.54 17.88L49.54 17.88Q47.18 17.88 45.43 16.06L45.43 16.06L45.43 22.18Q45.43 22.66 45.12 22.97Q44.81 23.28 44.33 23.28L44.33 23.28ZM49.22 15.84Q51 15.84 52.08 14.71Q53.16 13.58 53.16 11.52L53.16 11.52Q53.16 9.46 52.08 8.33Q51 7.20 49.22 7.20L49.22 7.20Q48.12 7.20 47.15 7.69Q46.18 8.18 45.43 9L45.43 9L45.43 14.04Q46.18 14.86 47.15 15.35Q48.12 15.84 49.22 15.84L49.22 15.84ZM59.47 17.76Q59.02 17.76 58.70 17.45Q58.39 17.14 58.39 16.68L58.39 16.68L58.39 1.10Q58.39 0.65 58.70 0.32Q59.02 0 59.47 0L59.47 0Q59.95 0 60.26 0.31Q60.58 0.62 60.58 1.10L60.58 1.10L60.58 16.68Q60.58 17.14 60.25 17.45Q59.93 17.76 59.47 17.76L59.47 17.76ZM69.84 17.88Q66.91 17.88 65.27 16.21Q63.62 14.54 63.62 11.52L63.62 11.52Q63.62 9.82 64.25 8.38Q64.87 6.94 66.17 6.05Q67.46 5.16 69.36 5.16L69.36 5.16Q71.14 5.16 72.43 5.99Q73.73 6.82 74.40 8.20Q75.07 9.58 75.07 11.21L75.07 11.21Q75.07 11.66 74.77 11.98Q74.47 12.29 73.97 12.29L73.97 12.29L65.83 12.29Q66.02 13.97 67.08 14.90Q68.14 15.84 70.03 15.84L70.03 15.84Q71.04 15.84 71.80 15.65Q72.55 15.46 73.27 15.10L73.27 15.10Q73.46 15 73.70 15L73.70 15Q74.09 15 74.38 15.26Q74.66 15.53 74.66 15.94L74.66 15.94Q74.66 16.46 74.04 16.82L74.04 16.82Q73.10 17.35 72.19 17.62Q71.28 17.88 69.84 17.88L69.84 17.88ZM65.83 10.51L72.91 10.51Q72.84 9.34 72.30 8.54Q71.76 7.75 70.97 7.38Q70.18 7.01 69.36 7.01L69.36 7.01Q68.54 7.01 67.75 7.38Q66.96 7.75 66.43 8.54Q65.90 9.34 65.83 10.51L65.83 10.51ZM83.40 17.88Q80.35 17.88 77.69 16.73L77.69 16.73Q77.40 16.61 77.21 16.33Q77.02 16.06 77.02 15.74L77.02 15.74Q77.02 15.34 77.29 15.04Q77.57 14.74 78 14.74L78 14.74Q78.24 14.74 78.46 14.83L78.46 14.83Q80.66 15.82 83.18 15.82L83.18 15.82Q87.38 15.82 87.38 13.06L87.38 13.06Q87.38 12.34 86.84 11.86Q86.30 11.38 85.51 11.10Q84.72 10.82 83.26 10.44L83.26 10.44Q81.31 9.94 80.11 9.47Q78.91 9 78.05 8.06Q77.18 7.13 77.18 5.57L77.18 5.57Q77.18 4.20 77.90 3.08Q78.62 1.97 80.03 1.31Q81.43 0.65 83.40 0.65L83.40 0.65Q86.04 0.65 88.18 1.44L88.18 1.44Q88.85 1.68 88.85 2.40L88.85 2.40Q88.85 2.78 88.58 3.10Q88.32 3.41 87.89 3.41L87.89 3.41Q87.74 3.41 87.50 3.31L87.50 3.31Q85.63 2.66 83.64 2.66L83.64 2.66Q81.74 2.66 80.56 3.38Q79.37 4.10 79.37 5.40L79.37 5.40Q79.37 6.26 79.93 6.80Q80.50 7.34 81.35 7.64Q82.20 7.94 83.66 8.28L83.66 8.28Q85.56 8.74 86.72 9.19Q87.89 9.65 88.72 10.61Q89.54 11.57 89.54 13.20L89.54 13.20Q89.54 14.54 88.78 15.61Q88.01 16.68 86.62 17.28Q85.22 17.88 83.40 17.88L83.40 17.88ZM96.17 17.88Q92.66 17.88 92.66 14.71L92.66 14.71L92.66 7.27L90.96 7.27Q90.77 7.27 90.64 7.14Q90.50 7.01 90.50 6.82L90.50 6.82Q90.50 6.58 90.72 6.41L90.72 6.41L93.98 3.22Q94.20 3 94.39 3L94.39 3Q94.58 3 94.72 3.14Q94.85 3.29 94.85 3.48L94.85 3.48L94.85 5.40L97.56 5.40Q97.97 5.40 98.23 5.66Q98.50 5.93 98.50 6.34L98.50 6.34Q98.50 6.72 98.23 7.00Q97.97 7.27 97.56 7.27L97.56 7.27L94.85 7.27L94.85 14.52Q94.85 15.46 95.29 15.71Q95.74 15.96 96.41 15.96L96.41 15.96Q96.89 15.96 97.37 15.82L97.37 15.82Q97.46 15.79 97.57 15.77Q97.68 15.74 97.85 15.74L97.85 15.74Q98.18 15.74 98.45 16.00Q98.71 16.25 98.71 16.61L98.71 16.61Q98.71 17.16 98.16 17.45L98.16 17.45Q97.22 17.88 96.17 17.88L96.17 17.88ZM106.34 17.88Q104.50 17.88 103.10 17.09Q101.71 16.30 100.96 14.84Q100.20 13.39 100.20 11.52L100.20 11.52Q100.20 9.65 100.96 8.20Q101.71 6.74 103.10 5.95Q104.50 5.16 106.34 5.16L106.34 5.16Q108.17 5.16 109.56 5.95Q110.95 6.74 111.72 8.20Q112.49 9.65 112.49 11.52L112.49 11.52Q112.49 13.39 111.72 14.84Q110.95 16.30 109.56 17.09Q108.17 17.88 106.34 17.88L106.34 17.88ZM106.34 15.89Q107.33 15.89 108.23 15.43Q109.13 14.98 109.72 13.99Q110.30 13.01 110.30 11.50L110.30 11.50Q110.30 10.01 109.72 9.02Q109.13 8.04 108.23 7.60Q107.33 7.15 106.34 7.15L106.34 7.15Q105.34 7.15 104.44 7.60Q103.54 8.04 102.96 9.02Q102.38 10.01 102.38 11.50L102.38 11.50Q102.38 13.01 102.96 13.99Q103.54 14.98 104.44 15.43Q105.34 15.89 106.34 15.89L106.34 15.89ZM116.62 17.76Q116.16 17.76 115.85 17.45Q115.54 17.14 115.54 16.68L115.54 16.68L115.54 6.38Q115.54 5.93 115.85 5.60Q116.16 5.28 116.62 5.28L116.62 5.28Q117.07 5.28 117.40 5.60Q117.72 5.93 117.72 6.38L117.72 6.38L117.72 7.42Q119.40 5.16 121.49 5.16L121.49 5.16L121.61 5.16Q122.06 5.16 122.36 5.47Q122.66 5.78 122.66 6.24L122.66 6.24Q122.66 6.70 122.35 6.98Q122.04 7.27 121.56 7.27L121.56 7.27L121.44 7.27Q120.29 7.27 119.33 7.84Q118.37 8.40 117.72 9.38L117.72 9.38L117.72 16.68Q117.72 17.14 117.40 17.45Q117.07 17.76 116.62 17.76L116.62 17.76ZM127.85 17.88Q126.79 17.88 125.89 17.45Q124.99 17.02 124.46 16.19Q123.94 15.36 123.94 14.28L123.94 14.28Q123.94 12.50 125.34 11.45Q126.74 10.39 129.46 10.39L129.46 10.39L132.36 10.39L132.36 10.20Q132.36 8.62 131.58 7.92Q130.80 7.22 129.14 7.22L129.14 7.22Q128.23 7.22 127.52 7.37Q126.82 7.51 125.95 7.80L125.95 7.80Q125.76 7.85 125.64 7.85L125.64 7.85Q125.28 7.85 125.02 7.58Q124.75 7.32 124.75 6.94L124.75 6.94Q124.75 6.29 125.38 6.02L125.38 6.02Q127.42 5.16 129.53 5.16L129.53 5.16Q131.18 5.16 132.32 5.83Q133.46 6.50 134.00 7.57Q134.54 8.64 134.54 9.89L134.54 9.89L134.54 16.68Q134.54 17.14 134.22 17.45Q133.90 17.76 133.44 17.76L133.44 17.76Q132.98 17.76 132.67 17.45Q132.36 17.14 132.36 16.68L132.36 16.68L132.36 16.06Q130.58 17.88 127.85 17.88L127.85 17.88ZM128.66 15.96Q129.72 15.96 130.70 15.44Q131.69 14.93 132.36 14.16L132.36 14.16L132.36 12.14L129.74 12.14Q126.12 12.14 126.12 14.04L126.12 14.04Q126.12 14.90 126.71 15.43Q127.30 15.96 128.66 15.96L128.66 15.96ZM143.93 23.40Q142.54 23.40 141.12 23.04Q139.70 22.68 138.79 22.15L138.79 22.15Q138.36 21.89 138.36 21.31L138.36 21.31Q138.36 20.93 138.64 20.63Q138.91 20.33 139.32 20.33L139.32 20.33Q139.51 20.33 139.75 20.42L139.75 20.42Q141.58 21.34 143.71 21.34L143.71 21.34Q147.38 21.34 147.38 17.42L147.38 17.42L147.38 15.82Q145.68 17.64 143.28 17.64L143.28 17.64Q141.86 17.64 140.53 16.93Q139.20 16.22 138.34 14.82Q137.47 13.42 137.47 11.40L137.47 11.40Q137.47 9.38 138.34 7.98Q139.20 6.58 140.53 5.87Q141.86 5.16 143.28 5.16L143.28 5.16Q145.68 5.16 147.38 6.98L147.38 6.98L147.38 6.38Q147.38 5.93 147.70 5.60Q148.01 5.28 148.46 5.28L148.46 5.28Q148.92 5.28 149.24 5.60Q149.57 5.93 149.57 6.38L149.57 6.38L149.57 17.11Q149.57 20.14 148.10 21.77Q146.64 23.40 143.93 23.40L143.93 23.40ZM143.74 15.65Q144.86 15.65 145.73 15.17Q146.59 14.69 147.38 13.87L147.38 13.87L147.38 8.93Q146.59 8.11 145.73 7.63Q144.86 7.15 143.74 7.15L143.74 7.15Q141.94 7.15 140.80 8.24Q139.66 9.34 139.66 11.40L139.66 11.40Q139.66 13.46 140.80 14.56Q141.94 15.65 143.74 15.65L143.74 15.65ZM158.83 17.88Q155.90 17.88 154.26 16.21Q152.62 14.54 152.62 11.52L152.62 11.52Q152.62 9.82 153.24 8.38Q153.86 6.94 155.16 6.05Q156.46 5.16 158.35 5.16L158.35 5.16Q160.13 5.16 161.42 5.99Q162.72 6.82 163.39 8.20Q164.06 9.58 164.06 11.21L164.06 11.21Q164.06 11.66 163.76 11.98Q163.46 12.29 162.96 12.29L162.96 12.29L154.82 12.29Q155.02 13.97 156.07 14.90Q157.13 15.84 159.02 15.84L159.02 15.84Q160.03 15.84 160.79 15.65Q161.54 15.46 162.26 15.10L162.26 15.10Q162.46 15 162.70 15L162.70 15Q163.08 15 163.37 15.26Q163.66 15.53 163.66 15.94L163.66 15.94Q163.66 16.46 163.03 16.82L163.03 16.82Q162.10 17.35 161.18 17.62Q160.27 17.88 158.83 17.88L158.83 17.88ZM154.82 10.51L161.90 10.51Q161.83 9.34 161.29 8.54Q160.75 7.75 159.96 7.38Q159.17 7.01 158.35 7.01L158.35 7.01Q157.54 7.01 156.74 7.38Q155.95 7.75 155.42 8.54Q154.90 9.34 154.82 10.51L154.82 10.51Z" transform="translate(0, 2.8)"></path><line x1="173.064" y1="2%" x2="173.064" y2="98%" stroke="#12a5bf" stroke-linecap="round"></line><g fill="#005a7b" color="#005a7b" transform="translate(182.064 0) scale(0.29)"><g transform="translate(449.0, -451.0)"><svg width="100.0" height="100.0" x="-449.0" y="451.0" viewBox="-449 451 100 100"><g><path d="M-592.2,756.9"></path></g><path d="M-444,522.3V537h10.8v7.2h11.2V537h46.2v7.2h11.2V537h10.8v-14.7H-444z M-358,533.1h-10.8v7.2h-3.2v-7.2h-54.2v7.2h-3.2  v-7.2H-440v-6.8h82V533.1z"></path><path d="M-400.6,500.8h-39.8v18.3h39.8V500.8z M-404.6,515.1h-31.9v-10.4h31.9V515.1z"></path><path d="M-357.6,500.8h-39.8v18.3h39.8V500.8z M-361.6,515.1h-31.9v-10.4h31.9V515.1z"></path><path d="M-400.6,479.3h-39.8v18.3h39.8V479.3z M-404.6,493.6h-31.9v-10.4h31.9V493.6z"></path><path d="M-357.6,479.3h-39.8v18.3h39.8V479.3z M-361.6,493.6h-31.9v-10.4h31.9V493.6z"></path><path d="M-400.6,457.8h-39.8v18.3h39.8V457.8z M-404.6,472.1h-31.9v-10.4h31.9V472.1z"></path><path d="M-357.6,457.8h-39.8v18.3h39.8V457.8z M-361.6,472.1h-31.9v-10.4h31.9V472.1z"></path></svg></g></g></svg>