<?xml version="1.0" standalone="no"?>
<svg xmlns="http://www.w3.org/2000/svg" viewBox="0 0 284.16 52.68" width="284.16" height="52.68">
    <rect fill="none" stroke="#72edca" stroke-width="4" width="280.16" height="48.68" x="2" y="2"></rect>
    <g fill="#0019ff" color="#0019ff" transform="translate(243.481 12) scale(0.2868)">
        <svg width="100.0" height="100.0" x="0.0" y="0.0" viewBox="0 0 100 100">
            <path d="M15.534,70.175L54.02,92.354V33.109L9.437,18.953L15.534,70.175z M17.482,68.534l-2.946-25.983l9.68,3.826l0.269,3.479  c0.014,0.179,0.125,0.336,0.29,0.407l6.256,2.719c0.062,0.026,0.128,0.04,0.193,0.04c0.081,0,0.162-0.021,0.234-0.061l2.974-1.641  c0.095-0.053,0.158-0.139,0.2-0.233l16.395,7.252v28.757L17.482,68.534z M31.013,35.284l-0.935,0.422l-5.086-1.887l2.044-0.959  l4.992,1.964L31.013,35.284z M32.832,35.527l0.865,15.091l-2.041,1.126l-1.052-15.211L32.832,35.527z M29.437,36.503l0.197,0.073  l1.051,15.198L25.43,49.49l-1.15-14.9L29.437,36.503z M51.027,49.9l-16.784-6.696l-0.483-8.422l-0.001-0.016  c-0.005-0.086-0.036-0.166-0.082-0.235c-0.014-0.021-0.034-0.032-0.051-0.051c-0.032-0.036-0.059-0.075-0.1-0.101  c-0.014-0.008-0.031-0.007-0.046-0.014c-0.011-0.005-0.017-0.018-0.028-0.022l-6.255-2.461c-0.125-0.048-0.263-0.044-0.384,0.012  l-3.282,1.539c-0.015,0.007-0.02,0.022-0.033,0.03c-0.017,0.01-0.038,0.011-0.053,0.022c-0.032,0.023-0.047,0.06-0.072,0.09  c-0.02,0.025-0.042,0.043-0.057,0.072c-0.033,0.061-0.047,0.128-0.051,0.198c-0.001,0.017-0.013,0.03-0.012,0.048  c0,0.003,0.002,0.005,0.003,0.008c0,0.003-0.002,0.006-0.002,0.009l0.378,4.9l-9.914-3.47l-1.364-12.031L51.027,36.64V49.9z   M48.069,7.002L10.31,18.212l44.163,14.023L89.84,16.167L48.069,7.002z M15.432,18.181l32.637-9.948l36.689,8.204L54.504,30.179  L15.432,18.181z M54.988,33.066v59.151l29.562-25.324l5.982-49.976L54.988,33.066z M88.039,21.565l-1.221,11.114L58.127,49.657  l0.068-13.222L88.039,21.565z M83.219,65.457L57.936,86.126l0.148-28.554l27.934-17.599L83.219,65.457z"></path>
        </svg>
    </g>
    <path fill="#0019ff" fill-rule="nonzero" d="M7.84 28.68L7.84 28.68Q5.68 28.68 3.90 27.58Q2.12 26.48 1.06 24.66Q0 22.84 0 20.64L0 20.64L0 18.80Q0 18.60 0.20 18.60L0.20 18.60L4.68 18.60Q4.84 18.60 4.84 18.80L4.84 18.80L4.84 20.64Q4.84 21.96 5.72 22.90Q6.60 23.84 7.84 23.84L7.84 23.84Q9.08 23.84 9.96 22.88Q10.84 21.92 10.84 20.64L10.84 20.64Q10.84 19.16 8.92 18.08L8.92 18.08Q8.28 17.72 6.92 16.96Q5.56 16.20 4.36 15.52L4.36 15.52Q2.16 14.24 1.10 12.30Q0.04 10.36 0.04 7.92L0.04 7.92Q0.04 5.68 1.12 3.90Q2.20 2.12 3.98 1.08Q5.76 0.04 7.84 0.04L7.84 0.04Q9.96 0.04 11.74 1.10Q13.52 2.16 14.58 3.94Q15.64 5.72 15.64 7.92L15.64 7.92L15.64 11.20Q15.64 11.36 15.48 11.36L15.48 11.36L11 11.36Q10.84 11.36 10.84 11.20L10.84 11.20L10.80 7.92Q10.80 6.52 9.92 5.64Q9.04 4.76 7.84 4.76L7.84 4.76Q6.60 4.76 5.72 5.70Q4.84 6.64 4.84 7.92L4.84 7.92Q4.84 9.24 5.40 10.12Q5.96 11 7.44 11.80L7.44 11.80Q7.64 11.92 8.22 12.22Q8.80 12.52 9.48 12.90Q10.16 13.28 10.70 13.56Q11.24 13.84 11.36 13.92L11.36 13.92Q13.36 15.04 14.52 16.66Q15.68 18.28 15.68 20.64L15.68 20.64Q15.68 22.92 14.62 24.74Q13.56 26.56 11.78 27.62Q10 28.68 7.84 28.68ZM23.20 28.28L18.68 28.28Q18.48 28.28 18.48 28.08L18.48 28.08L18.52 0.60Q18.52 0.44 18.68 0.44L18.68 0.44L23.16 0.44Q23.32 0.44 23.32 0.60L23.32 0.60L23.36 28.08Q23.36 28.28 23.20 28.28L23.20 28.28ZM31.56 28.28L27.04 28.28Q26.88 28.28 26.88 28.08L26.88 28.08L26.96 0.60Q26.96 0.44 27.12 0.44L27.12 0.44L32 0.44Q32.16 0.44 32.28 0.60L32.28 0.60L35.92 5.88L39.56 0.60Q39.68 0.44 39.84 0.44L39.84 0.44L44.76 0.44Q44.92 0.44 44.92 0.60L44.92 0.60L45 28.08Q45 28.28 44.84 28.28L44.84 28.28L40.32 28.28Q40.16 28.28 40.16 28.08L40.16 28.08L40.12 7.68L35.92 13.76L31.76 7.68L31.72 28.08Q31.72 28.28 31.56 28.28L31.56 28.28ZM53.04 28.28L48.56 28.28Q48.36 28.28 48.36 28.08L48.36 28.08L48.44 0.60Q48.44 0.44 48.60 0.44L48.60 0.44L56.28 0.44Q59.96 0.44 62.10 2.68Q64.24 4.92 64.24 8.76L64.24 8.76Q64.24 11.60 63.12 13.68Q62.00 15.76 60.20 16.88Q58.40 18 56.28 18L56.28 18L53.24 18L53.24 28.08Q53.24 28.28 53.04 28.28L53.04 28.28ZM53.24 5.24L53.24 13.16L56.28 13.16Q57.56 13.16 58.50 11.94Q59.44 10.72 59.44 8.76L59.44 8.76Q59.44 7.20 58.60 6.20Q57.76 5.20 56.28 5.20L56.28 5.20L53.24 5.24ZM79.72 28.28L66.80 28.28Q66.64 28.28 66.64 28.08L66.64 28.08L66.68 0.64Q66.68 0.44 66.88 0.44L66.88 0.44L71.32 0.44Q71.52 0.44 71.52 0.64L71.52 0.64L71.48 23.36L79.72 23.36Q79.92 23.36 79.92 23.56L79.92 23.56L79.92 28.08Q79.92 28.28 79.72 28.28L79.72 28.28ZM95.60 28.28L82.68 28.28Q82.52 28.28 82.52 28.08L82.52 28.08L82.56 0.60Q82.56 0.44 82.72 0.44L82.72 0.44L95.56 0.44Q95.72 0.44 95.72 0.64L95.72 0.64L95.72 5.12Q95.72 5.28 95.56 5.28L95.56 5.28L87.36 5.28L87.36 11.52L95.56 11.52Q95.72 11.52 95.72 11.68L95.72 11.68L95.76 16.20Q95.76 16.36 95.60 16.36L95.60 16.36L87.36 16.36L87.36 23.36L95.60 23.36Q95.76 23.36 95.76 23.56L95.76 23.56L95.76 28.12Q95.76 28.28 95.60 28.28L95.60 28.28ZM105.88 28.68L105.88 28.68Q103.72 28.68 101.94 27.58Q100.16 26.48 99.10 24.66Q98.04 22.84 98.04 20.64L98.04 20.64L98.04 18.80Q98.04 18.60 98.24 18.60L98.24 18.60L102.72 18.60Q102.88 18.60 102.88 18.80L102.88 18.80L102.88 20.64Q102.88 21.96 103.76 22.90Q104.64 23.84 105.88 23.84L105.88 23.84Q107.12 23.84 108 22.88Q108.88 21.92 108.88 20.64L108.88 20.64Q108.88 19.16 106.96 18.08L106.96 18.08Q106.32 17.72 104.96 16.96Q103.60 16.20 102.40 15.52L102.40 15.52Q100.20 14.24 99.14 12.30Q98.08 10.36 98.08 7.92L98.08 7.92Q98.08 5.68 99.16 3.90Q100.24 2.12 102.02 1.08Q103.80 0.04 105.88 0.04L105.88 0.04Q108 0.04 109.78 1.10Q111.56 2.16 112.62 3.94Q113.68 5.72 113.68 7.92L113.68 7.92L113.68 11.20Q113.68 11.36 113.52 11.36L113.52 11.36L109.04 11.36Q108.88 11.36 108.88 11.20L108.88 11.20L108.84 7.92Q108.84 6.52 107.96 5.64Q107.08 4.76 105.88 4.76L105.88 4.76Q104.64 4.76 103.76 5.70Q102.88 6.64 102.88 7.92L102.88 7.92Q102.88 9.24 103.44 10.12Q104 11 105.48 11.80L105.48 11.80Q105.68 11.92 106.26 12.22Q106.84 12.52 107.52 12.90Q108.20 13.28 108.74 13.56Q109.28 13.84 109.40 13.92L109.40 13.92Q111.40 15.04 112.56 16.66Q113.72 18.28 113.72 20.64L113.72 20.64Q113.72 22.92 112.66 24.74Q111.60 26.56 109.82 27.62Q108.04 28.68 105.88 28.68ZM124.84 28.28L120.32 28.28Q120.16 28.28 120.16 28.08L120.16 28.08L120.16 5.28L114.96 5.28Q114.76 5.28 114.76 5.08L114.76 5.08L114.80 0.60Q114.80 0.44 114.96 0.44L114.96 0.44L130.16 0.44Q130.36 0.44 130.36 0.60L130.36 0.60L130.36 5.08Q130.36 5.28 130.20 5.28L130.20 5.28L124.96 5.28L125 28.08Q125 28.28 124.84 28.28L124.84 28.28ZM138.84 28.68L138.84 28.68Q136.68 28.68 134.90 27.58Q133.12 26.48 132.04 24.66Q130.96 22.84 130.96 20.64L130.96 20.64L131 7.96Q131 5.76 132.06 3.96Q133.12 2.16 134.92 1.08Q136.72 0 138.84 0L138.84 0Q141 0 142.76 1.08Q144.52 2.16 145.58 3.96Q146.64 5.76 146.64 7.96L146.64 7.96L146.68 20.64Q146.68 22.84 145.62 24.66Q144.56 26.48 142.78 27.58Q141 28.68 138.84 28.68ZM138.84 23.84L138.84 23.84Q140.04 23.84 140.94 22.86Q141.84 21.88 141.84 20.64L141.84 20.64L141.80 7.96Q141.80 6.64 140.96 5.72Q140.12 4.80 138.84 4.80L138.84 4.80Q137.60 4.80 136.72 5.70Q135.84 6.60 135.84 7.96L135.84 7.96L135.84 20.64Q135.84 21.96 136.72 22.90Q137.60 23.84 138.84 23.84ZM154.40 28.28L149.88 28.28Q149.72 28.28 149.72 28.08L149.72 28.08L149.80 0.60Q149.80 0.44 149.96 0.44L149.96 0.44L158.04 0.44Q160.20 0.44 162.02 1.50Q163.84 2.56 164.92 4.34Q166 6.12 166 8.36L166 8.36Q166 9.84 165.56 11.02Q165.12 12.20 164.52 13.02Q163.92 13.84 163.44 14.24L163.44 14.24Q165.60 16.64 165.60 19.88L165.60 19.88L165.64 28.08Q165.64 28.28 165.44 28.28L165.44 28.28L160.92 28.28Q160.76 28.28 160.76 28.16L160.76 28.16L160.76 19.88Q160.76 18.44 159.74 17.38Q158.72 16.32 157.24 16.32L157.24 16.32L154.60 16.32L154.56 28.08Q154.56 28.28 154.40 28.28L154.40 28.28ZM154.60 5.24L154.60 11.52L158.04 11.52Q159.28 11.52 160.24 10.60Q161.20 9.68 161.20 8.36L161.20 8.36Q161.20 7.08 160.26 6.16Q159.32 5.24 158.04 5.24L158.04 5.24L154.60 5.24ZM167.64 28.08L167.64 28.08L172.60 0.60Q172.64 0.44 172.80 0.44L172.80 0.44L178.60 0.44Q178.76 0.44 178.80 0.60L178.80 0.60L183.56 28.08Q183.60 28.28 183.40 28.28L183.40 28.28L178.96 28.28Q178.80 28.28 178.76 28.08L178.76 28.08L178.32 25.16L172.88 25.16L172.44 28.08Q172.40 28.28 172.24 28.28L172.24 28.28L167.80 28.28Q167.64 28.28 167.64 28.08ZM175.48 9.64L173.68 20.88L177.52 20.88L175.88 9.64L175.64 8.16L175.48 9.64ZM192.56 28.68L192.56 28.68Q190.40 28.68 188.64 27.60Q186.88 26.52 185.82 24.70Q184.76 22.88 184.76 20.64L184.76 20.64L184.76 7.96Q184.76 5.80 185.82 3.98Q186.88 2.16 188.66 1.08Q190.44 0 192.56 0L192.56 0Q194.76 0 196.54 1.06Q198.32 2.12 199.36 3.92Q200.40 5.72 200.40 7.96L200.40 7.96L200.40 9.80Q200.40 9.96 200.20 9.96L200.20 9.96L195.72 9.96Q195.56 9.96 195.56 9.80L195.56 9.80L195.56 8.28Q195.56 6.76 194.70 5.76Q193.84 4.76 192.56 4.76L192.56 4.76Q191.40 4.76 190.50 5.72Q189.60 6.68 189.60 7.96L189.60 7.96L189.60 20.64Q189.60 21.96 190.48 22.90Q191.36 23.84 192.56 23.84L192.56 23.84Q193.84 23.84 194.70 22.92Q195.56 22 195.56 20.64L195.56 20.64L195.56 18.68L192.76 18.68Q192.56 18.68 192.56 18.48L192.56 18.48L192.56 14Q192.56 13.80 192.76 13.80L192.76 13.80L200.24 13.80Q200.40 13.80 200.40 14L200.40 14L200.40 20.64Q200.40 22.88 199.34 24.70Q198.28 26.52 196.52 27.60Q194.76 28.68 192.56 28.68ZM216.32 28.28L203.40 28.28Q203.24 28.28 203.24 28.08L203.24 28.08L203.28 0.60Q203.28 0.44 203.44 0.44L203.44 0.44L216.28 0.44Q216.44 0.44 216.44 0.64L216.44 0.64L216.44 5.12Q216.44 5.28 216.28 5.28L216.28 5.28L208.08 5.28L208.08 11.52L216.28 11.52Q216.44 11.52 216.44 11.68L216.44 11.68L216.48 16.20Q216.48 16.36 216.32 16.36L216.32 16.36L208.08 16.36L208.08 23.36L216.32 23.36Q216.48 23.36 216.48 23.56L216.48 23.56L216.48 28.12Q216.48 28.28 216.32 28.28L216.32 28.28Z" transform="translate(12 12) scale(1)"></path>
</svg>